<?xml version="1.0" encoding="UTF-8" standalone="no"?>
<!-- Generator: Adobe Illustrator 21.1.0, SVG Export Plug-In . SVG Version: 6.00 Build 0)  -->

<svg
   version="1.1"
   id="Calque_1"
   x="0px"
   y="0px"
   viewBox="0 0 500.00001 551.62702"
   xml:space="preserve"
   sodipodi:docname="logo.svg"
   width="500"
   height="551.62701"
   inkscape:version="1.3 (0e150ed6c4, 2023-07-21)"
   xmlns:inkscape="http://www.inkscape.org/namespaces/inkscape"
   xmlns:sodipodi="http://sodipodi.sourceforge.net/DTD/sodipodi-0.dtd"
   xmlns="http://www.w3.org/2000/svg"
   xmlns:svg="http://www.w3.org/2000/svg"><defs
   id="defs13" /><sodipodi:namedview
   id="namedview13"
   pagecolor="#ffffff"
   bordercolor="#000000"
   borderopacity="0.25"
   inkscape:showpageshadow="2"
   inkscape:pageopacity="0.0"
   inkscape:pagecheckerboard="0"
   inkscape:deskcolor="#d1d1d1"
   inkscape:zoom="0.67916667"
   inkscape:cx="135.46012"
   inkscape:cy="279.0184"
   inkscape:window-width="2552"
   inkscape:window-height="1388"
   inkscape:window-x="1920"
   inkscape:window-y="44"
   inkscape:window-maximized="1"
   inkscape:current-layer="Calque_1" />&#10;<style
   type="text/css"
   id="style1">&#10;	.st0{fill:#0A96B6;}&#10;	.st1{fill:#C3C2C1;}&#10;	.st2{fill:#D41C60;}&#10;	.st3{fill:#F1890A;}&#10;</style>&#10;<g
   id="g13"
   transform="matrix(1.5644556,0,0,1.5644556,-409.88737,-156.60201)">&#10;	<g
   id="g12">&#10;		<path
   class="st0"
   d="m 353.1,322.5 58,29 v -69.9 c 0,-4 -2.2,-7.6 -5.7,-9.4 L 347.2,241.7 V 313 c 0,4 2.3,7.7 5.9,9.5 z"
   id="path1" />&#10;		<path
   class="st1"
   d="M 325.9,308.9 V 237 c 0,-4 -2.2,-7.6 -5.7,-9.4 L 262,197 v 73.3 c 0,4 2.3,7.7 5.9,9.5 z"
   id="path2" />&#10;		<path
   class="st1"
   d="m 347.2,340.8 v 71.9 c 0,4 2.2,7.6 5.7,9.4 l 58.2,30.5 v -73.3 c 0,-4 -2.3,-7.7 -5.9,-9.5 z"
   id="path3" />&#10;		<path
   class="st1"
   d="m 320,327.2 -58,-29 v 69.9 c 0,4 2.2,7.6 5.7,9.4 l 58.2,30.5 v -71.3 c 0,-4 -2.3,-7.7 -5.9,-9.5 z"
   id="path4" />&#10;		<path
   class="st2"
   d="m 490.5,322.5 -58,29 v -69.9 c 0,-4 2.2,-7.6 5.7,-9.5 l 58.2,-30.5 v 71.3 c 0,4.1 -2.3,7.8 -5.9,9.6 z"
   id="path5" />&#10;		<path
   class="st1"
   d="M 517.7,308.9 V 237 c 0,-4 2.2,-7.6 5.7,-9.5 L 581.6,197 v 73.3 c 0,4.1 -2.3,7.8 -5.9,9.6 z"
   id="path6" />&#10;		<path
   class="st1"
   d="m 496.4,340.8 v 71.9 c 0,4 -2.2,7.6 -5.7,9.5 l -58.2,30.5 v -73.3 c 0,-4.1 2.3,-7.8 5.9,-9.6 z"
   id="path7" />&#10;		<path
   class="st1"
   d="m 523.6,327.2 58,-29 v 69.9 c 0,4 -2.2,7.6 -5.7,9.5 l -58.2,30.5 v -71.3 c 0,-4.1 2.3,-7.8 5.9,-9.6 z"
   id="path8" />&#10;		<path
   class="st1"
   d="m 443,178.5 59.4,31.7 c 2.9,1.6 6.4,1.6 9.4,0 l 59.5,-31.7 -59.5,-31.7 c -2.9,-1.6 -6.4,-1.6 -9.4,0 z"
   id="path9" />&#10;		<path
   class="st1"
   d="M 426.5,164.7 486,133 426.5,101.3 c -2.9,-1.6 -6.4,-1.6 -9.4,0 l -59.4,31.7 59.4,31.7 c 3,1.6 6.5,1.6 9.4,0 z"
   id="path10" />&#10;		<path
   class="st1"
   d="m 272.4,177.9 59.2,32.2 c 2.9,1.6 6.4,1.6 9.4,0.1 L 400.8,179 341.6,146.8 c -2.9,-1.6 -6.4,-1.6 -9.4,-0.1 z"
   id="path11" />&#10;		<path
   class="st3"
   d="m 417.1,192.3 -59.4,31.7 59.5,31.7 c 2.9,1.6 6.4,1.6 9.4,0 L 486,224 426.6,192.3 c -3,-1.6 -6.5,-1.6 -9.5,0 z"
   id="path12" />&#10;	</g>&#10;</g>&#10;</svg>
