<?xml version="1.0" encoding="utf-8"?>
<!-- Generator: Adobe Illustrator 21.1.0, SVG Export Plug-In . SVG Version: 6.00 Build 0)  -->
<svg version="1.1" id="Calque_1" xmlns="http://www.w3.org/2000/svg" xmlns:xlink="http://www.w3.org/1999/xlink" x="0px" y="0px"
	 viewBox="0 0 960 560" style="enable-background:new 0 0 960 560;" xml:space="preserve">
<style type="text/css">
	.st0{fill:#0A96B6;}
	.st1{fill:#C3C2C1;}
	.st2{fill:#D41C60;}
	.st3{fill:#F1890A;}
</style>
<g>
	<g>
		<path class="st0" d="M124.1,332.5l58,29v-69.9c0-4-2.2-7.6-5.7-9.4l-58.2-30.5v71.3C118.2,327,120.5,330.7,124.1,332.5z"/>
		<path class="st1" d="M96.9,318.9v-71.9c0-4-2.2-7.6-5.7-9.4L33,207v73.3c0,4,2.3,7.7,5.9,9.5L96.9,318.9z"/>
		<path class="st1" d="M118.2,350.8v71.9c0,4,2.2,7.6,5.7,9.4l58.2,30.5v-73.3c0-4-2.3-7.7-5.9-9.5L118.2,350.8z"/>
		<path class="st1" d="M91,337.2l-58-29v69.9c0,4,2.2,7.6,5.7,9.4l58.2,30.5v-71.3C96.9,342.7,94.6,339,91,337.2z"/>
		<path class="st2" d="M261.5,332.5l-58,29v-69.9c0-4,2.2-7.6,5.7-9.5l58.2-30.5v71.3C267.4,327,265.1,330.7,261.5,332.5z"/>
		<path class="st1" d="M288.7,318.9V247c0-4,2.2-7.6,5.7-9.5l58.2-30.5v73.3c0,4.1-2.3,7.8-5.9,9.6L288.7,318.9z"/>
		<path class="st1" d="M267.4,350.8v71.9c0,4-2.2,7.6-5.7,9.5l-58.2,30.5v-73.3c0-4.1,2.3-7.8,5.9-9.6L267.4,350.8z"/>
		<path class="st1" d="M294.6,337.2l58-29v69.9c0,4-2.2,7.6-5.7,9.5l-58.2,30.5v-71.3C288.7,342.7,291,339,294.6,337.2z"/>
		<path class="st1" d="M214,188.5l59.4,31.7c2.9,1.6,6.4,1.6,9.4,0l59.5-31.7l-59.5-31.7c-2.9-1.6-6.4-1.6-9.4,0L214,188.5z"/>
		<path class="st1" d="M197.5,174.7L257,143l-59.5-31.7c-2.9-1.6-6.4-1.6-9.4,0L128.7,143l59.4,31.7
			C191.1,176.3,194.6,176.3,197.5,174.7z"/>
		<path class="st1" d="M43.4,187.9l59.2,32.2c2.9,1.6,6.4,1.6,9.4,0.1l59.8-31.2l-59.2-32.2c-2.9-1.6-6.4-1.6-9.4-0.1L43.4,187.9z"
			/>
		<path class="st3" d="M188.1,202.3L128.7,234l59.5,31.7c2.9,1.6,6.4,1.6,9.4,0L257,234l-59.4-31.7
			C194.6,200.7,191.1,200.7,188.1,202.3z"/>
	</g>
	<g>
		<path class="st0" d="M424.7,255.1h-19.1v-52.6h19.1c12.5,0,18.7,8.5,18.7,25.6C443.3,246.1,437.1,255.1,424.7,255.1z M438.5,228.1
			c0-14.2-4.6-21.3-13.8-21.3h-14.4V251h14.4C433.9,251,438.5,243.4,438.5,228.1z"/>
		<path class="st0" d="M456.7,255.1v-52.6h31.5v4.2h-26.9v19.5h22.3v4.2h-22.3V251h26.9v4.2H456.7z"/>
		<path class="st0" d="M549.9,202.6h4.8l-14.1,52.6h-11.4L515,202.6h4.8l12.8,48.4h4.5L549.9,202.6z"/>
		<path class="st0" d="M565.5,255.1v-52.6h4.7v52.6H565.5z"/>
		<path class="st0" d="M585.6,255.1v-52.6h9.2l22,48.4h1.7v-48.4h4.6v52.6h-9.1L592,206.8h-1.7v48.3H585.6z"/>
		<path class="st0" d="M670.1,254.3c-5.2,1.1-9.6,1.6-13.3,1.6c-3.7,0-6.6-0.4-8.9-1.2c-2.2-0.8-4.1-1.9-5.5-3.3
			c-1.4-1.4-2.5-3.3-3.3-5.5c-1.5-4.1-2.3-9.8-2.3-16.9c0-11.4,1.8-18.9,5.4-22.6c3-3.1,7.5-4.6,13.6-4.6c4.2,0,8.9,0.5,14.2,1.6
			l-0.2,4.1c-5.2-1-9.5-1.4-12.6-1.4c-3.2,0-5.6,0.3-7.4,1c-1.7,0.7-3.2,1.6-4.2,2.7c-1.1,1.1-1.9,2.7-2.5,4.7
			c-1,3.4-1.5,7.7-1.5,12.9c0,5.1,0.2,9,0.5,11.5c0.4,2.5,1,4.9,2,6.9c1,2.1,2.5,3.6,4.5,4.5c2,0.9,4.7,1.4,8.2,1.4
			c3.5,0,7.8-0.5,13-1.4L670.1,254.3z"/>
		<path class="st0" d="M682.2,255.1v-52.6h4.7v52.6H682.2z"/>
	</g>
	<g>
		<path class="st2" d="M463.7,279.3c0.8,0.8,1.2,1.8,1.2,3c0,1.1-0.4,2.1-1.2,2.9c-0.8,0.8-1.8,1.2-3,1.2h-46.6v35.1h40.3
			c1.2,0,2.2,0.4,3,1.1c0.8,0.7,1.2,1.7,1.2,2.9s-0.4,2.2-1.2,2.9c-0.8,0.7-1.8,1.1-3,1.1h-40.3v42.3c0,1.2-0.4,2.2-1.2,3
			s-1.8,1.2-3,1.2c-1.3,0-2.4-0.4-3.1-1.2c-0.8-0.8-1.2-1.8-1.2-3v-89.6c0-1.2,0.4-2.2,1.2-3c0.8-0.8,1.8-1.2,3-1.2h50.9
			C461.9,278.2,462.9,278.6,463.7,279.3z"/>
		<path class="st2" d="M557.8,372.2c0,1.2-0.4,2.2-1.3,2.9c-0.8,0.7-1.8,1.1-2.9,1.1c-0.9,0-1.7-0.3-2.4-0.8c-0.7-0.5-1.2-1.2-1.6-2
			L539,347.9h-45.5l-10.4,25.6c-0.7,1.9-2,2.8-3.8,2.8c-1.3,0-2.3-0.3-2.9-1c-0.7-0.7-1-1.5-1.1-2.7v-0.4c0-0.6,0-1,0.1-1.3l37-90.4
			c0.7-1.9,2.1-2.8,4.2-2.8c0.9,0,1.8,0.3,2.4,0.8c0.7,0.5,1.2,1.2,1.6,2l36.8,90C557.7,371.3,557.8,371.8,557.8,372.2z
			 M496.8,339.6h38.9l-19.6-47.9L496.8,339.6z"/>
		<path class="st2" d="M645.3,332.5c3.5,4.2,5.3,9.7,5.3,16.4c0,9.1-2.8,16-8.5,20.5c-5.6,4.5-12.7,6.8-21.1,6.8h-37.6
			c-1.2,0-2.2-0.4-3-1.2c-0.8-0.8-1.2-1.8-1.2-3v-89.6c0-1.2,0.4-2.2,1.2-3c0.8-0.8,1.8-1.2,3-1.2h37.1c7.8,0,14,2.1,18.4,6.4
			c4.4,4.3,6.7,10.2,6.7,17.6c0,4.9-1.2,9.4-3.6,13.3c-2.4,3.9-5.9,6.8-10.4,8.5C637.2,325.5,641.7,328.3,645.3,332.5z M632.1,290.8
			c-3-2.9-7.3-4.4-12.7-4.4h-31.2v35h31.2c5-0.1,9.2-1.7,12.4-4.9c3.2-3.2,4.8-7.7,4.8-13.6C636.6,297.8,635.1,293.8,632.1,290.8z
			 M635.8,363.1c3.9-3.2,5.8-7.9,5.8-14.3c0-6.5-2-11.3-6-14.4c-4-3.1-9.1-4.6-15.3-4.6h-32.2v38.1h32.5
			C626.9,367.9,632,366.3,635.8,363.1z"/>
		<path class="st3" d="M731.8,364.9c1.3,1.2,1.9,2.8,1.9,4.8c0,1.9-0.6,3.4-1.9,4.6c-1.3,1.2-2.9,1.8-4.8,1.8h-47.3
			c-2,0-3.6-0.6-4.8-2c-1.3-1.3-1.9-2.9-1.9-4.8v-84.5c0-1.9,0.6-3.5,2-4.8c1.3-1.3,3-2,5-2c1.9,0,3.5,0.7,4.8,2
			c1.4,1.3,2,2.9,2,4.8v78.2H727C729,363.1,730.6,363.7,731.8,364.9z"/>
		<path class="st3" d="M829.9,370.1c0,1.9-0.6,3.4-1.9,4.6c-1.3,1.2-2.7,1.8-4.4,1.8c-1.3,0-2.5-0.4-3.6-1.2
			c-1.1-0.8-1.9-1.9-2.6-3.3l-8.7-20.6h-43.2l-8.5,20.7c-0.5,1.4-1.2,2.5-2.3,3.2c-1.1,0.7-2.3,1.1-3.6,1.1c-2,0-3.5-0.5-4.5-1.5
			c-1-1-1.5-2.4-1.5-4.2c0-0.4,0.1-1.1,0.3-2.2l35.7-86.5c0.6-1.5,1.6-2.6,2.7-3.4c1.2-0.8,2.5-1.1,4-0.9c1.4,0,2.7,0.4,3.8,1.1
			c1.1,0.7,1.9,1.8,2.4,3.2l35.5,85.4C829.7,368.3,829.9,369.2,829.9,370.1z M770.8,338.8h32.6l-16.4-39.2L770.8,338.8z"/>
		<path class="st3" d="M917,331.4c3.3,4.1,5,9.4,5,15.9c0,10.4-3,17.8-9,22.2c-6,4.4-13.4,6.6-22,6.6h-36c-1.9,0-3.5-0.6-4.8-2
			c-1.3-1.3-2-2.9-2-4.8v-84.5c0-1.9,0.6-3.5,2-4.8c1.3-1.3,2.9-2,4.8-2h36c8.5,0,14.9,2.1,19.4,6.3c4.4,4.2,6.6,10.3,6.6,18.2
			c0,4.5-1.1,8.5-3.2,12c-2.2,3.5-5.3,6.2-9.4,8C909.5,324.4,913.7,327.3,917,331.4z M899,294.7c-2.4-2.3-5.7-3.4-10-3.4h-26.5v27.3
			h26.7c3.8-0.1,7-1.3,9.5-3.7c2.5-2.4,3.8-5.8,3.8-10.1C902.5,300.4,901.3,297,899,294.7z M903.1,359.3c3.1-2.7,4.6-6.7,4.6-12
			c0-10.4-5.9-15.5-17.6-15.5h-27.6v31.5h28.3C895.9,363.3,900,361.9,903.1,359.3z"/>
	</g>
</g>
</svg>
